# xmcd
#
# Track frame offsets:
#	150
#	15603
#	28199
#	44035
#	57039
#	73663
#	85335
#	102681
#	117576
#	130884
#	148710
#	164763
#	180482
#	193384
#	206306
#	219035
#	229835
#	244087
#	258892
#
# Disc length: 3620 seconds
#
# Revision: 0
# Processed by: cddbd v1.5.2PL0 Copyright (c) Steve Scherf et al.
# Submitted via: EasyCDDAExtractor 16.0.6.1
#
DISCID=1e0e2213
DTITLE=Συλλογικός δίσκος - Η ρεμπέτικη κομπανία-Δ. Κοντογιάννης 2
DYEAR=2009
DGENRE=Ρεμπέτικη
TTITLE0=Σιδέρης Γιώργος-Εμμανουήλ Χαρά - Όσο βαριά είν' τα σίδερα [Γιώργος Μητ
TTITLE0=σάκης]
TTITLE1=Δημητριανάκης Μανώλης - Πεισματάρα [Μάρκος Βαμβακάρης]
TTITLE2=Κοντογιάννης Δημήτρης-Σιδέρης Γιώργος - Χαρέμια με διαμάντια [Βασίλης 
TTITLE2=Τσιτσάνης]
TTITLE3=Δημητριανάκης Μανώλης-Εμμανουήλ Χαρά - Στο Φάληρο που πλένεσαι [Μάρκος
TTITLE3=Βαμβακάρης]
TTITLE4=Κοντογιάννης Δημήτρης-Σιδέρης Γιώργος - Τα Υδραίϊκα [ΔημΉΤΡΗς Γκόγκος]
TTITLE5=Κοντογιάννης Δημήτρης-Δημητριανάκης Μανώλης - Μπουζούκι μου διπλόχορδο
TTITLE5=[Σ. Περιστέρης-Μ. Μάτσας]
TTITLE6=Κοντογιάννης Δημήτρης - Εργάτης τιμημένος [Παναγιώτης Τούντας]
TTITLE7=Δημητριανάκης Μανώλης - Ψηλά μη χτίζεις τη φωλιά [Αντ. Βαμβακάρης-Δημ.
TTITLE7=Μπαρούσης]
TTITLE8=Κοντογιάννης Δημήτρης - Τι να πω και τι να γράψω [Θ. Δερβενιώτης-Κ. Βί
TTITLE8=ρβος]
TTITLE9=Κόρου Κατερίνα - Προσφυγάκι [Παναγιώτης Τούντας]
TTITLE10=Κοντογιάννης Δημήτρης - Δυό μάγκες μέσ' στη φυλακή [Κώστας Τζόβενος]
TTITLE11=Κοντογιάννης Δημήτρης - Είμαι φίνος μάγκας [Σ. Περιστέρης]
TTITLE12=Κοντογιάννης Δημήτρης - Περασμένα ξεχασμένα [Οδ. Μοσχονάς-Δημ. Σέμσης
TTITLE12=]
TTITLE13=Κοντογιάννης Δημήτρης - Η ατσιγγάνα [Γιώργος Μπάτης]
TTITLE14=Κόρου Κατερίνα - Η αιτία θά 'σαι εσύ [Γιώργος Μητσάκης]
TTITLE15=Δημητριανάκης Μανώλης - Ο Παμεινώντας [Στέλιος Κηρομύτης]
TTITLE16=Κόρου Κατερίνα - Η Πειραιώτισσα [Γ. Παπαϊωάννου-Κ. Μάνεσης]
TTITLE17=Κοντογιάννης Δημήτρης - Ο ξενύχτης [Απόστολος Χατζηχρήστος]
TTITLE18=Δημητριανάκης Μανώλης - Μερακλίδικο πουλί [Γ. Μπερνιδάκης-Στ. Φουσταλ
TTITLE18=ιεράκης]
EXTD=
EXTT0=
EXTT1=
EXTT2=
EXTT3=
EXTT4=
EXTT5=
EXTT6=
EXTT7=
EXTT8=
EXTT9=
EXTT10=
EXTT11=
EXTT12=
EXTT13=
EXTT14=
EXTT15=
EXTT16=
EXTT17=
EXTT18=
PLAYORDER=
